<svg width="165" height="489" viewBox="0 0 165 489" fill="none" xmlns="http://www.w3.org/2000/svg">
<g id="Card" opacity="0.1">
<g id="Man">
<path id="Vector" d="M95.7678 68.4278C95.7678 68.4278 86.4436 65.6708 84.4436 68.6708C82.4436 71.6708 87.1703 93.4185 87.1703 93.4185L107.716 94.6671L100.546 76.5606L95.7678 68.4278Z" fill="#2F2E41"/>
<path id="Vector_2" d="M23.8878 247.018C23.8878 247.018 42.5825 288.06 28.1854 286.771C13.7884 285.482 8.20148 247.018 8.20148 247.018H23.8878Z" fill="#A0616A"/>
<path id="Vector_3" d="M146.155 242.742C146.155 242.742 137.954 287.09 151.61 282.353C165.267 277.616 161.375 238.944 161.375 238.944L146.155 242.742Z" fill="#A0616A"/>
<path id="Vector_4" d="M91.7903 58.1373C91.7903 58.1373 91.5754 78.7659 99.526 79.8403C107.477 80.9147 95.0135 91.8736 95.0135 91.8736L80.8313 94.6671L60.4176 93.1629L51.3926 81.5593C51.3926 81.5593 67.2938 74.0385 60.4176 50.6164L91.7903 58.1373Z" fill="#A0616A"/>
<path id="Vector_5" opacity="0.1" d="M91.7903 58.1373C91.7903 58.1373 91.5754 78.7659 99.526 79.8403C107.477 80.9147 95.0135 91.8736 95.0135 91.8736L80.8313 94.6671L60.4176 93.1629L51.3926 81.5593C51.3926 81.5593 67.2938 74.0385 60.4176 50.6164L91.7903 58.1373Z" fill="black"/>
<path id="Vector_6" d="M128.32 232.621C128.32 232.621 138.42 254.324 130.469 322.441C130.469 322.441 132.833 346.508 130.899 351.02C128.965 355.533 113.064 416.774 113.064 416.774C113.064 416.774 92.6498 421.287 89.8564 407.749C89.8564 407.749 92.6498 388.41 92.4349 385.401C92.22 382.393 96.9474 349.516 96.9474 349.516L87.2778 285.911L79.9718 343.285C79.9718 343.285 79.9718 359.831 77.6081 363.484C75.2444 367.137 77.6081 440.626 77.6081 440.626C77.6081 440.626 84.2694 451.8 74.17 452.015C64.0706 452.229 55.0456 451.8 54.186 444.709C53.3264 437.617 52.8967 430.526 50.7479 426.229C48.5991 421.931 45.8056 372.723 46.4503 355.533C47.0949 338.342 32.2681 250.026 36.9955 240.786C41.7229 231.546 128.32 232.621 128.32 232.621Z" fill="#2F2E41"/>
<path id="Vector_7" d="M80.8313 65.873C95.0724 65.873 106.617 54.3283 106.617 40.0873C106.617 25.8462 95.0724 14.3015 80.8313 14.3015C66.5903 14.3015 55.0456 25.8462 55.0456 40.0873C55.0456 54.3283 66.5903 65.873 80.8313 65.873Z" fill="#A0616A"/>
<path id="Vector_8" d="M55.0456 81.9891C55.0456 81.9891 70.7319 93.5927 93.5093 84.3528C93.5093 84.3528 101.03 80.6998 100.386 75.1129C99.7409 69.526 116.072 120.023 116.072 120.023L132.618 207.91L131.758 243.795C131.758 243.795 124.452 240.142 101.675 248.307C78.8975 256.473 41.723 239.067 41.723 239.067L43.0123 146.883L44.3015 93.1629L47.7396 81.3444C47.7396 81.3444 49.4586 78.1212 55.0456 81.9891Z" fill="#F2F2F2"/>
<path id="Vector_9" d="M92.5069 67.564C92.5069 67.564 96.3028 66.9474 99.9558 72.7492C103.609 78.551 112.204 82.204 112.204 82.204C112.204 82.204 133.048 83.4932 136.056 94.6671C139.064 105.841 146.585 121.097 150.238 149.247C153.891 177.396 161.197 222.307 162.271 225.96C163.346 229.613 160.767 240.786 163.776 244.224C166.784 247.663 142.502 247.663 142.502 247.663C142.502 247.663 140.353 230.042 138.849 230.042C137.345 230.042 137.775 241.861 139.279 250.456C140.783 259.051 128.32 250.456 128.32 250.456C128.32 250.456 118.65 211.133 109.411 175.677C100.171 140.222 94.7987 120.668 96.5177 112.717C98.2367 104.766 102.964 81.9891 99.526 79.8403C96.0879 77.6915 92.5069 67.564 92.5069 67.564Z" fill="#2F2E41"/>
<path id="Vector_10" d="M61.5192 67.5451C61.5192 67.5451 55.9052 70.6004 41.723 80.6998C27.5408 90.7992 17.8711 98.5349 17.8711 98.5349C17.8711 98.5349 12.2842 102.833 8.84614 128.403C5.40805 153.974 -2.3277 220.158 0.680652 228.538C3.689 236.918 4.7634 241.861 3.68899 246.803C2.61458 251.745 26.2515 251.53 26.6813 250.456C27.111 249.382 26.0366 229.827 27.111 229.398C28.1855 228.968 33.9872 241.001 35.0616 251.101C36.1361 261.2 48.5992 269.151 51.3927 269.151C54.1861 269.151 68.5832 210.918 68.798 171.165C69.0129 131.412 64.0706 97.8903 60.4177 93.1629C56.7647 88.4355 61.5192 67.5451 61.5192 67.5451Z" fill="#2F2E41"/>
<path id="Vector_11" d="M99.3112 418.708C99.3112 418.708 101.03 413.981 107.047 415.485C113.064 416.989 117.146 411.617 117.146 411.617C117.146 411.617 120.37 411.187 118.221 415.27C116.072 419.353 114.353 422.146 114.353 422.146C114.353 422.146 127.246 451.585 118.865 458.676C110.485 465.767 100.815 461.469 100.815 461.469C100.815 461.469 91.3606 454.808 91.7904 437.188C91.7904 437.188 91.3606 431.601 86.2034 422.576C81.0463 413.551 77.1784 399.798 83.41 397.22C89.6415 394.641 91.2455 394.546 91.2455 394.546C91.2455 394.546 88.3295 407.883 95.8617 412.543L99.3112 418.708Z" fill="#3F3D56"/>
<path id="Vector_12" d="M59.3432 452.015C59.3432 452.015 54.1861 442.345 62.7813 441.271C71.3766 440.196 80.6165 439.551 80.1867 444.064C79.7569 448.576 78.6825 455.453 78.6825 455.453L80.1867 460.395C80.1867 460.395 80.6165 472.643 82.1206 474.147C83.6248 475.652 91.7903 488.544 74.3849 488.544C56.9795 488.544 51.8224 486.61 53.3266 482.528C54.8307 478.445 55.2605 458.246 55.2605 458.246L59.3432 452.015Z" fill="#3F3D56"/>
<path id="Vector_13" d="M72.6659 19.4587C72.6659 19.4587 84.6992 22.6819 90.9308 23.9712C97.1624 25.2605 96.5177 21.6075 96.5177 21.6075C96.5177 21.6075 104.683 22.6819 104.253 21.8224C103.824 20.9628 107.692 16.4503 103.179 11.2932C98.6665 6.13599 99.9558 2.26817 99.9558 2.26817H96.0879L95.0135 0.764022H88.9969C88.9969 0.764022 84.4844 -0.955028 72.6659 0.764022C60.8474 2.48307 44.7313 2.91283 43.442 10.0039C42.1527 17.095 35.4914 25.9051 37.8551 29.9879C40.2188 34.0706 53.7563 50.8313 55.0456 57.9224C56.3349 65.0135 62.3549 66.589 62.1384 62.1483C61.9218 57.7075 55.9051 42.2361 61.0623 41.5914C66.2194 40.9468 75.0296 27.839 72.6659 19.4587Z" fill="#2F2E41"/>
</g>
</g>
</svg>
