<svg width="986" height="676" viewBox="0 0 986 676" fill="none" xmlns="http://www.w3.org/2000/svg">
<g id="Card">
<g id="Bg">
<path id="Vector" d="M945.102 121.295H246.898C236.185 121.295 227.5 129.98 227.5 140.693V600.898C227.5 611.611 236.185 620.295 246.898 620.295H945.102C955.815 620.295 964.5 611.611 964.5 600.898V140.693C964.5 129.98 955.815 121.295 945.102 121.295Z" fill="#F2F2F2"/>
<path id="Vector_2" d="M922.602 89.7954H224.398C213.685 89.7954 205 98.48 205 109.193V569.398C205 580.111 213.685 588.795 224.398 588.795H922.602C933.315 588.795 942 580.111 942 569.398V109.193C942 98.48 933.315 89.7954 922.602 89.7954Z" stroke="white" stroke-miterlimit="10"/>
<path id="Vector_3" d="M205 137.636H942" stroke="white" stroke-miterlimit="10"/>
<path id="Vector_4" opacity="0.3" d="M839.407 249.795H652.593C648.675 249.795 645.5 252.971 645.5 256.888V273.703C645.5 277.62 648.675 280.795 652.593 280.795H839.407C843.325 280.795 846.5 277.62 846.5 273.703V256.888C846.5 252.971 843.325 249.795 839.407 249.795Z" fill="white"/>
<path id="Vector_5" opacity="0.3" d="M877.907 335.795H614.093C610.175 335.795 607 338.971 607 342.888V353.703C607 357.62 610.175 360.795 614.093 360.795H877.907C881.825 360.795 885 357.62 885 353.703V342.888C885 338.971 881.825 335.795 877.907 335.795Z" fill="white"/>
<path id="Vector_6" opacity="0.3" d="M877.907 403.795H614.093C610.175 403.795 607 406.971 607 410.888V421.703C607 425.62 610.175 428.795 614.093 428.795H877.907C881.825 428.795 885 425.62 885 421.703V410.888C885 406.971 881.825 403.795 877.907 403.795Z" fill="white"/>
<path id="Vector_7" opacity="0.3" d="M877.907 471.795H614.093C610.175 471.795 607 474.971 607 478.888V489.703C607 493.62 610.175 496.795 614.093 496.795H877.907C881.825 496.795 885 493.62 885 489.703V478.888C885 474.971 881.825 471.795 877.907 471.795Z" fill="white"/>
<path id="Vector_8" d="M849.407 239.795H662.593C658.675 239.795 655.5 242.971 655.5 246.888V263.703C655.5 267.62 658.675 270.795 662.593 270.795H849.407C853.325 270.795 856.5 267.62 856.5 263.703V246.888C856.5 242.971 853.325 239.795 849.407 239.795Z" stroke="white" stroke-miterlimit="10"/>
<path id="Vector_9" d="M887.907 325.795H624.093C620.175 325.795 617 328.971 617 332.888V343.703C617 347.62 620.175 350.795 624.093 350.795H887.907C891.825 350.795 895 347.62 895 343.703V332.888C895 328.971 891.825 325.795 887.907 325.795Z" stroke="white" stroke-miterlimit="10"/>
<path id="Vector_10" d="M887.907 393.795H624.093C620.175 393.795 617 396.971 617 400.888V411.703C617 415.62 620.175 418.795 624.093 418.795H887.907C891.825 418.795 895 415.62 895 411.703V400.888C895 396.971 891.825 393.795 887.907 393.795Z" stroke="white" stroke-miterlimit="10"/>
<path id="Vector_11" d="M887.907 461.795H624.093C620.175 461.795 617 464.971 617 468.888V479.703C617 483.62 620.175 486.795 624.093 486.795H887.907C891.825 486.795 895 483.62 895 479.703V468.888C895 464.971 891.825 461.795 887.907 461.795Z" stroke="white" stroke-miterlimit="10"/>
<path id="Vector_12" opacity="0.3" d="M261 134.795C269.284 134.795 276 128.08 276 119.795C276 111.511 269.284 104.795 261 104.795C252.716 104.795 246 111.511 246 119.795C246 128.08 252.716 134.795 261 134.795Z" fill="white"/>
<path id="Vector_13" opacity="0.3" d="M303 134.795C311.284 134.795 318 128.08 318 119.795C318 111.511 311.284 104.795 303 104.795C294.716 104.795 288 111.511 288 119.795C288 128.08 294.716 134.795 303 134.795Z" fill="white"/>
<path id="Vector_14" opacity="0.3" d="M345 134.795C353.284 134.795 360 128.08 360 119.795C360 111.511 353.284 104.795 345 104.795C336.716 104.795 330 111.511 330 119.795C330 128.08 336.716 134.795 345 134.795Z" fill="white"/>
<path id="Vector_15" d="M267 128.795C275.284 128.795 282 122.08 282 113.795C282 105.511 275.284 98.7954 267 98.7954C258.716 98.7954 252 105.511 252 113.795C252 122.08 258.716 128.795 267 128.795Z" stroke="white" stroke-miterlimit="10"/>
<path id="Vector_16" d="M309 128.795C317.284 128.795 324 122.08 324 113.795C324 105.511 317.284 98.7954 309 98.7954C300.716 98.7954 294 105.511 294 113.795C294 122.08 300.716 128.795 309 128.795Z" stroke="white" stroke-miterlimit="10"/>
<path id="Vector_17" d="M351 128.795C359.284 128.795 366 122.08 366 113.795C366 105.511 359.284 98.7954 351 98.7954C342.716 98.7954 336 105.511 336 113.795C336 122.08 342.716 128.795 351 128.795Z" stroke="white" stroke-miterlimit="10"/>
<path id="Vector_18" d="M437.854 567.795C435.343 556.227 434.677 540.426 435.521 529.435C435.521 529.435 422.823 473.648 412.832 468.444L412.828 468.447C412.675 468.643 407.827 475 407.211 494.671C406.587 514.654 399.512 527.768 399.512 527.768C399.512 527.768 401.801 552.675 400.492 567.795L437.854 567.795Z" fill="white"/>
<path id="Vector_19" d="M530.228 212.795H299.772C296.65 212.795 293.559 213.41 290.675 214.605C287.791 215.8 285.17 217.551 282.963 219.758C280.755 221.965 279.004 224.586 277.81 227.47C276.615 230.354 276 233.445 276 236.567V544.024C276 547.145 276.615 550.237 277.81 553.121C279.004 556.005 280.755 558.625 282.963 560.833C285.17 563.04 287.791 564.791 290.675 565.986C293.559 567.181 296.65 567.795 299.772 567.795H380.627C377.927 556.596 374.57 539.105 377.969 526.943L377.968 526.935L377.97 526.94C378.129 526.373 378.297 525.813 378.486 525.27C380.821 517.377 381.6 509.106 380.778 500.916C382.279 493.918 382.279 486.682 380.778 479.684C378.28 468.028 376.532 456.579 376.532 456.579C376.532 456.579 375.155 441.176 376.357 431.734C376.383 431.527 376.414 431.33 376.443 431.129C376.019 431.033 375.781 430.977 375.781 430.977C375.781 430.977 379.32 414.949 380.569 404.749C380.864 402.341 381.252 399.289 381.672 396.035C380.519 395.843 379.384 395.555 378.279 395.174C367.039 391.219 363.5 355.417 363.5 355.417V344.072C363.5 344.072 359.753 326.691 372.867 318.99C385.495 311.573 390.537 309.543 390.893 309.403C390.989 309.334 391.083 309.272 391.181 309.196C392.609 308.076 393.738 306.622 394.471 304.962C394.489 304.676 394.493 304.392 394.483 304.11C394.27 300.043 391.439 296.345 388.753 293.118C386.462 290.366 384.171 287.613 381.88 284.861C381.095 284.041 380.491 283.065 380.109 281.996C379.964 281.406 379.901 280.799 379.922 280.192C379.92 279.967 379.922 279.743 379.926 279.519C379.964 277.467 380.019 275.415 380.094 273.363C380.158 271.571 380.609 269.31 382.364 268.942C383.277 268.75 384.485 269.084 384.968 268.286C385.13 267.957 385.171 267.582 385.085 267.225C385.079 267.252 385.077 267.28 385.07 267.306C385.064 267.272 385.058 267.239 385.052 267.206C384.691 265.769 384.473 264.3 384.401 262.82C384.382 262.152 384.477 261.485 384.683 260.85C385.7 257.875 389.201 256.654 392.295 256.092C395.389 255.531 398.861 255.048 400.803 252.575C401.323 251.754 401.887 250.962 402.492 250.202C403.383 249.392 404.477 248.84 405.658 248.605C409.498 247.633 413.555 247.993 417.164 249.626C418.66 250.309 420.164 251.228 421.805 251.124C423.51 251.016 424.967 249.816 426.65 249.524C429.369 249.053 431.969 251.09 433.309 253.503C434.16 255.037 434.586 256.771 434.542 258.526C434.574 260.272 433.944 261.966 432.778 263.267C431.608 264.508 429.861 265.361 429.376 266.996C429.178 267.662 429.224 268.379 429.049 269.051C429.027 269.135 428.991 269.213 428.963 269.295C428.995 269.336 429.03 269.376 429.061 269.418C431.108 272.115 432.48 275.263 433.063 278.598C433.646 281.934 433.422 285.36 432.411 288.592C431.4 291.823 429.63 294.766 427.25 297.175C424.87 299.583 421.949 301.387 418.729 302.437C418.721 302.647 418.713 302.858 418.714 303.07C418.654 304.382 418.876 305.692 419.366 306.911C419.856 308.13 420.602 309.229 421.554 310.135L440.101 317.741C440.101 317.741 451.267 316.387 455.296 333.05C455.942 335.82 456.174 338.67 455.986 341.508C455.839 344.02 456.181 348.443 459.043 354.168C463.622 363.326 462.582 384.35 453.215 386.432C444.342 388.403 440.891 387.575 440.551 387.482L440.531 387.85C440.677 391.795 442.081 425.819 447.178 429.936C448.588 431.074 448.319 431.843 447.162 432.362L447.165 432.365C447.165 432.365 447.174 432.584 447.196 432.977C447.349 435.465 448.136 444.942 451.548 450.334C455.504 456.579 455.089 492.591 455.089 492.591L457.793 513.823C457.793 513.823 456.129 526.937 457.793 529.226C458.739 530.523 459.884 550.629 460.698 567.795H530.228C536.533 567.795 542.579 565.291 547.037 560.833C551.495 556.375 554 550.328 554 544.024V236.567C554 233.445 553.385 230.354 552.19 227.47C550.996 224.586 549.245 221.965 547.037 219.758C544.83 217.551 542.209 215.8 539.325 214.605C536.441 213.41 533.35 212.795 530.228 212.795V212.795Z" fill="white"/>
<path id="Vector_20" d="M506.228 185.795H275.772C262.643 185.795 252 196.438 252 209.567V517.024C252 530.152 262.643 540.795 275.772 540.795H506.228C519.357 540.795 530 530.152 530 517.024V209.567C530 196.438 519.357 185.795 506.228 185.795Z" stroke="white" stroke-miterlimit="10"/>
<path id="Vector_21" d="M919.381 1C915.118 1.24078 911.007 2.66422 907.508 5.11071C904.009 7.55721 901.26 10.93 899.571 14.851C894.617 26.8248 900.995 40.8898 910.57 49.6213C920.144 58.3527 932.443 63.3435 943.618 69.9036C958.628 78.7149 972.115 90.9464 979.625 106.647C987.135 122.349 987.934 141.798 979.106 156.797C970.912 170.72 956.013 179.052 941.804 186.737" stroke="white" stroke-miterlimit="10"/>
</g>
<g id="Man">
<path id="Vector_22" d="M95.7678 255.428C95.7678 255.428 86.4436 252.671 84.4436 255.671C82.4436 258.671 87.1703 280.419 87.1703 280.419L107.716 281.667L100.546 263.561L95.7678 255.428Z" fill="#2F2E41"/>
<path id="Vector_23" d="M23.8878 434.018C23.8878 434.018 42.5825 475.06 28.1854 473.771C13.7884 472.482 8.20148 434.018 8.20148 434.018H23.8878Z" fill="#A0616A"/>
<path id="Vector_24" d="M146.155 429.742C146.155 429.742 137.954 474.09 151.61 469.353C165.267 464.616 161.375 425.944 161.375 425.944L146.155 429.742Z" fill="#A0616A"/>
<path id="Vector_25" d="M91.7903 245.137C91.7903 245.137 91.5754 265.766 99.526 266.84C107.477 267.915 95.0135 278.874 95.0135 278.874L80.8313 281.667L60.4176 280.163L51.3926 268.559C51.3926 268.559 67.2938 261.038 60.4176 237.616L91.7903 245.137Z" fill="#A0616A"/>
<path id="Vector_26" opacity="0.1" d="M91.7903 245.137C91.7903 245.137 91.5754 265.766 99.526 266.84C107.477 267.915 95.0135 278.874 95.0135 278.874L80.8313 281.667L60.4176 280.163L51.3926 268.559C51.3926 268.559 67.2938 261.038 60.4176 237.616L91.7903 245.137Z" fill="black"/>
<path id="Vector_27" d="M128.32 419.621C128.32 419.621 138.42 441.324 130.469 509.441C130.469 509.441 132.833 533.508 130.899 538.02C128.965 542.533 113.064 603.774 113.064 603.774C113.064 603.774 92.6498 608.287 89.8564 594.749C89.8564 594.749 92.6498 575.41 92.4349 572.401C92.22 569.393 96.9474 536.516 96.9474 536.516L87.2778 472.911L79.9718 530.285C79.9718 530.285 79.9718 546.831 77.6081 550.484C75.2444 554.137 77.6081 627.626 77.6081 627.626C77.6081 627.626 84.2694 638.8 74.17 639.015C64.0706 639.229 55.0456 638.8 54.186 631.709C53.3264 624.617 52.8967 617.526 50.7479 613.229C48.5991 608.931 45.8056 559.723 46.4503 542.533C47.0949 525.342 32.2681 437.026 36.9955 427.786C41.7229 418.546 128.32 419.621 128.32 419.621Z" fill="#2F2E41"/>
<path id="Vector_28" d="M80.8313 252.873C95.0724 252.873 106.617 241.328 106.617 227.087C106.617 212.846 95.0724 201.301 80.8313 201.301C66.5903 201.301 55.0456 212.846 55.0456 227.087C55.0456 241.328 66.5903 252.873 80.8313 252.873Z" fill="#A0616A"/>
<path id="Vector_29" d="M55.0456 268.989C55.0456 268.989 70.7319 280.593 93.5093 271.353C93.5093 271.353 101.03 267.7 100.386 262.113C99.7409 256.526 116.072 307.023 116.072 307.023L132.618 394.91L131.758 430.795C131.758 430.795 124.452 427.142 101.675 435.307C78.8975 443.473 41.723 426.067 41.723 426.067L43.0123 333.883L44.3015 280.163L47.7396 268.344C47.7396 268.344 49.4586 265.121 55.0456 268.989Z" fill="#F2F2F2"/>
<path id="Vector_30" d="M92.5069 254.564C92.5069 254.564 96.3028 253.947 99.9558 259.749C103.609 265.551 112.204 269.204 112.204 269.204C112.204 269.204 133.048 270.493 136.056 281.667C139.064 292.841 146.585 308.097 150.238 336.247C153.891 364.396 161.197 409.307 162.271 412.96C163.346 416.613 160.767 427.786 163.776 431.224C166.784 434.663 142.502 434.663 142.502 434.663C142.502 434.663 140.353 417.042 138.849 417.042C137.345 417.042 137.775 428.861 139.279 437.456C140.783 446.051 128.32 437.456 128.32 437.456C128.32 437.456 118.65 398.133 109.411 362.677C100.171 327.222 94.7987 307.668 96.5177 299.717C98.2367 291.766 102.964 268.989 99.526 266.84C96.0879 264.691 92.5069 254.564 92.5069 254.564Z" fill="#2F2E41"/>
<path id="Vector_31" d="M61.5192 254.545C61.5192 254.545 55.9052 257.6 41.723 267.7C27.5408 277.799 17.8711 285.535 17.8711 285.535C17.8711 285.535 12.2842 289.833 8.84614 315.403C5.40805 340.974 -2.3277 407.158 0.680652 415.538C3.689 423.918 4.7634 428.861 3.68899 433.803C2.61458 438.745 26.2515 438.53 26.6813 437.456C27.111 436.382 26.0366 416.827 27.111 416.398C28.1855 415.968 33.9872 428.001 35.0616 438.101C36.1361 448.2 48.5992 456.151 51.3927 456.151C54.1861 456.151 68.5832 397.918 68.798 358.165C69.0129 318.412 64.0706 284.89 60.4177 280.163C56.7647 275.435 61.5192 254.545 61.5192 254.545Z" fill="#2F2E41"/>
<path id="Vector_32" d="M99.3112 605.708C99.3112 605.708 101.03 600.981 107.047 602.485C113.064 603.989 117.146 598.617 117.146 598.617C117.146 598.617 120.37 598.187 118.221 602.27C116.072 606.353 114.353 609.146 114.353 609.146C114.353 609.146 127.246 638.585 118.865 645.676C110.485 652.767 100.815 648.469 100.815 648.469C100.815 648.469 91.3606 641.808 91.7904 624.188C91.7904 624.188 91.3606 618.601 86.2034 609.576C81.0463 600.551 77.1784 586.798 83.41 584.22C89.6415 581.641 91.2455 581.546 91.2455 581.546C91.2455 581.546 88.3295 594.883 95.8617 599.543L99.3112 605.708Z" fill="#3F3D56"/>
<path id="Vector_33" d="M59.3432 639.015C59.3432 639.015 54.1861 629.345 62.7813 628.271C71.3766 627.196 80.6165 626.551 80.1867 631.064C79.7569 635.576 78.6825 642.453 78.6825 642.453L80.1867 647.395C80.1867 647.395 80.6165 659.643 82.1206 661.147C83.6248 662.652 91.7903 675.544 74.3849 675.544C56.9795 675.544 51.8224 673.61 53.3266 669.528C54.8307 665.445 55.2605 645.246 55.2605 645.246L59.3432 639.015Z" fill="#3F3D56"/>
<path id="Vector_34" d="M72.6659 206.459C72.6659 206.459 84.6992 209.682 90.9308 210.971C97.1624 212.26 96.5177 208.607 96.5177 208.607C96.5177 208.607 104.683 209.682 104.253 208.822C103.824 207.963 107.692 203.45 103.179 198.293C98.6665 193.136 99.9558 189.268 99.9558 189.268H96.0879L95.0135 187.764H88.9969C88.9969 187.764 84.4844 186.045 72.6659 187.764C60.8474 189.483 44.7313 189.913 43.442 197.004C42.1527 204.095 35.4914 212.905 37.8551 216.988C40.2188 221.071 53.7563 237.831 55.0456 244.922C56.3349 252.013 62.3549 253.589 62.1384 249.148C61.9218 244.708 55.9051 229.236 61.0623 228.591C66.2194 227.947 75.0296 214.839 72.6659 206.459Z" fill="#2F2E41"/>
</g>
</g>
</svg>
